<svg width="25" height="24" viewBox="0 0 25 24" fill="none" xmlns="http://www.w3.org/2000/svg">
<path fill-rule="evenodd" clip-rule="evenodd" d="M15.4441 10.914H13.9301V8.862H16.9071C17.4954 8.84996 17.9631 8.36434 17.9531 7.776C17.9631 7.18766 17.4954 6.70203 16.9071 6.69H13.9301V6.09C13.9419 5.7084 13.745 5.35064 13.4164 5.15636C13.0877 4.96207 12.6794 4.96207 12.3508 5.15636C12.0221 5.35064 11.8253 5.7084 11.8371 6.09V6.69H10.3591C8.55201 6.652 7.05476 8.08306 7.01108 9.89C7.05476 11.6969 8.55201 13.128 10.3591 13.09H11.8371V15.142H8.86208C8.28041 15.167 7.82169 15.6458 7.82169 16.228C7.82169 16.8102 8.28041 17.289 8.86208 17.314H11.8371V17.914C11.8253 18.2956 12.0221 18.6534 12.3508 18.8476C12.6794 19.0419 13.0877 19.0419 13.4164 18.8476C13.745 18.6534 13.9419 18.2956 13.9301 17.914V17.314H15.4441C17.2417 17.343 18.7237 15.9116 18.7571 14.114C18.7237 12.3164 17.2417 10.885 15.4441 10.914ZM16.6661 14.114C16.5989 14.7276 16.06 15.1792 15.4441 15.138H13.9301V13.086H15.4441C16.0607 13.0449 16.5999 13.4976 16.6661 14.112V14.114ZM10.3591 8.862H11.8371V10.914H10.3591C9.73329 10.9626 9.17979 10.5108 9.10208 9.888C9.17979 9.26516 9.73329 8.81336 10.3591 8.862Z" fill="#C1C7D0"/>
</svg>
