<svg width="41" height="40" viewBox="0 0 41 40" fill="none" xmlns="http://www.w3.org/2000/svg">
<path d="M20.5236 3.33148C11.3186 3.33148 3.85693 10.7931 3.85693 19.9981C3.85693 29.2031 11.3186 36.6648 20.5236 36.6648C29.7286 36.6648 37.1903 29.2031 37.1903 19.9981C37.1903 10.7931 29.7286 3.33148 20.5236 3.33148ZM27.1903 14.9981C27.6169 14.9981 28.0619 15.1415 28.3886 15.4665C29.0386 16.1181 29.0386 17.2115 28.3886 17.8631L22.1386 24.0614C20.2203 25.9781 17.2886 25.6915 15.7836 23.4348L14.1169 20.9348C13.6069 20.1698 13.8202 19.1031 14.5869 18.5915C15.3519 18.0815 16.4186 18.2948 16.9303 19.0614L18.5969 21.5614C18.9336 22.0664 19.3653 22.1465 19.7936 21.7165L25.9919 15.4665C26.3186 15.1415 26.7636 14.9981 27.1903 14.9981Z" fill="#36B37E"/>
</svg>
