<svg width="17" height="16" viewBox="0 0 17 16" fill="none" xmlns="http://www.w3.org/2000/svg">
<path fill-rule="evenodd" clip-rule="evenodd" d="M9.43807 3.79199L10.6074 6.25866L13.0021 6.51266C13.25 6.53671 13.4587 6.70849 13.53 6.94717C13.6012 7.18586 13.5209 7.44393 13.3267 7.59999L11.4174 9.16999L12.0081 11.8093C12.062 12.0491 11.9674 12.298 11.7678 12.4414C11.5681 12.5848 11.3021 12.595 11.0921 12.4673L8.88407 11.124L6.67407 12.4667C6.46393 12.5941 6.198 12.5838 5.99835 12.4405C5.7987 12.2972 5.70387 12.0485 5.7574 11.8087L6.35073 9.16999L4.4414 7.59999C4.24864 7.44353 4.16935 7.1862 4.24064 6.94839C4.31193 6.71057 4.51969 6.53929 4.76673 6.51466L7.16073 6.26066L8.33007 3.79199C8.43166 3.57812 8.64729 3.44183 8.88407 3.44183C9.12084 3.44183 9.33647 3.57812 9.43807 3.79199Z" fill="white"/>
</svg>
