<svg width="25" height="24" viewBox="0 0 25 24" fill="none" xmlns="http://www.w3.org/2000/svg">
<path fill-rule="evenodd" clip-rule="evenodd" d="M13.9021 18.632C15.5561 17.277 18.6451 14.276 18.6451 10.761C18.6451 7.57929 16.0658 5 12.8841 5C9.70237 5 7.12308 7.57929 7.12308 10.761C7.12308 14.276 10.2121 17.277 11.8661 18.632C12.4559 19.1231 13.3122 19.1231 13.9021 18.632ZM12.8841 12.041C13.9445 12.041 14.8041 11.1814 14.8041 10.121C14.8041 9.06061 13.9445 8.201 12.8841 8.201C11.8237 8.201 10.9641 9.06061 10.9641 10.121C10.9641 11.1814 11.8237 12.041 12.8841 12.041Z" fill="#C1C7D0"/>
</svg>
