<svg width="25" height="24" viewBox="0 0 25 24" fill="none" xmlns="http://www.w3.org/2000/svg">
<path fill-rule="evenodd" clip-rule="evenodd" d="M13.2571 5.06702L18.6421 7.05402C19.0665 7.20945 19.3491 7.61299 19.3501 8.06502V11.047C19.4553 14.8692 16.8031 18.216 13.0581 18.987C12.9455 19.0057 12.8306 19.0057 12.7181 18.987C8.97301 18.216 6.32084 14.8692 6.42606 11.047V8.06502C6.42574 7.61503 6.70473 7.21209 7.12606 7.05402L12.5111 5.06702C12.7518 4.97807 13.0163 4.97807 13.2571 5.06702ZM12.6951 13.844L15.7081 10.569L15.7161 10.573C15.8813 10.3665 15.9238 10.0876 15.8276 9.84121C15.7314 9.59486 15.511 9.41856 15.2496 9.37871C14.9881 9.33886 14.7253 9.44152 14.5601 9.64802L12.0601 12.277L11.1601 11.377C10.8709 11.0879 10.4022 11.0879 10.1131 11.377C9.82394 11.6661 9.82394 12.1349 10.1131 12.424L11.5941 13.9C11.7322 14.0399 11.9204 14.1191 12.1171 14.12H12.1581C12.3683 14.1091 12.5638 14.0086 12.6951 13.844Z" fill="#00875A"/>
</svg>
