<svg width="305" height="305" viewBox="0 0 305 305" fill="none" xmlns="http://www.w3.org/2000/svg">
<rect width="305" height="305" fill="white"/>
<path d="M273.997 152.497C273.997 219.597 219.6 273.993 152.5 273.993C85.398 273.993 31.0035 219.597 31.0035 152.497C31.0035 85.3964 85.398 31 152.5 31C219.6 31 273.997 85.3964 273.997 152.497Z" fill="#FFEBE5"/>
<path d="M197.012 175.219H212.539L195.627 266.478C190.318 268.397 184.841 269.971 179.23 271.175L197.012 175.219ZM92.4608 175.219L109.373 266.476C114.682 268.393 120.159 269.969 125.77 271.173L107.988 175.219H92.4608ZM32.8523 35.5847H22.5896C20.9702 35.5847 19.749 37.0514 20.0442 38.6412L45.357 175.219L39.7708 205.362C43.222 212.036 47.2515 218.364 51.7904 224.281L60.8844 175.219L35.3957 37.6998C35.1692 36.4736 34.0997 35.5847 32.8523 35.5847ZM282.412 35.5847H272.148C270.9 35.5847 269.831 36.4736 269.604 37.6998L244.118 175.219L253.21 224.299C257.749 218.382 261.78 212.051 265.231 205.376L259.645 175.219L284.956 38.6412C285.251 37.0514 284.03 35.5847 282.412 35.5847ZM144.736 273.759C147.306 273.914 149.892 273.993 152.5 273.993C155.108 273.993 157.694 273.914 160.264 273.761V107.988H144.736V273.759Z" fill="#FF8F73"/>
<path d="M171.956 37.5923C177.988 37.5923 182.88 42.4828 182.88 48.517C182.88 54.5511 177.988 59.4417 171.956 59.4417C165.922 59.4417 161.031 54.5511 161.031 48.517C161.031 42.4828 165.922 37.5923 171.956 37.5923ZM122.795 56.7105C122.795 64.2532 128.908 70.3663 136.451 70.3663C143.991 70.3663 150.106 64.2532 150.106 56.7105C150.106 49.1699 143.991 43.0546 136.451 43.0546C128.908 43.0546 122.795 49.1699 122.795 56.7105Z" fill="#0AB59E"/>
<path d="M155.569 37.5923C164.618 37.5923 171.956 44.928 171.956 53.9793C171.956 63.0306 164.618 70.3663 155.569 70.3663C146.517 70.3663 139.182 63.0306 139.182 53.9793C139.182 44.928 146.517 37.5923 155.569 37.5923Z" fill="#0ED1B2"/>
<path d="M179.603 64.9041L174.141 86.7534H130.442L124.98 64.9041H179.603Z" fill="#C92E43"/>
<path d="M179.603 64.9041L174.141 86.7534H145.19L139.728 64.9041H179.603Z" fill="#E43950"/>
<path d="M174.687 53.9795C179.21 53.9795 182.88 57.6474 182.88 62.173C182.88 66.6986 179.21 70.3665 174.687 70.3665C170.161 70.3665 166.493 66.6986 166.493 62.173C166.493 57.6474 170.161 53.9795 174.687 53.9795ZM139.182 64.9042C139.182 67.9213 141.627 70.3665 144.644 70.3665C147.659 70.3665 150.106 67.9213 150.106 64.9042C150.106 61.8871 147.659 59.4418 144.644 59.4418C141.627 59.4418 139.182 61.8871 139.182 64.9042Z" fill="#0ED1B2"/>
<path d="M141.913 32.1301C146.436 32.1301 150.106 35.798 150.106 40.3236C150.106 44.8493 146.436 48.5172 141.913 48.5172C137.387 48.5172 133.719 44.8493 133.719 40.3236C133.719 35.798 137.387 32.1301 141.913 32.1301ZM117.332 62.173C117.332 66.6986 121 70.3665 125.526 70.3665C130.049 70.3665 133.719 66.6986 133.719 62.173C133.719 57.6474 130.049 53.9795 125.526 53.9795C121 53.9795 117.332 57.6474 117.332 62.173Z" fill="#0AB59E"/>
<path d="M150.106 31.2659C153.121 31.2659 155.569 33.7111 155.569 36.7282C155.569 39.7453 153.121 42.1906 150.106 42.1906C147.089 42.1906 144.644 39.7453 144.644 36.7282C144.644 33.7111 147.089 31.2659 150.106 31.2659ZM133.719 53.1152C133.719 56.1323 136.165 58.5776 139.182 58.5776C142.197 58.5776 144.644 56.1323 144.644 53.1152C144.644 50.0981 142.197 47.6529 139.182 47.6529C136.165 47.6529 133.719 50.0981 133.719 53.1152Z" fill="#FDCDC7"/>
<path d="M166.493 37.5923C169.508 37.5923 171.956 40.0375 171.956 43.0546C171.956 46.0717 169.508 48.517 166.493 48.517C163.476 48.517 161.031 46.0717 161.031 43.0546C161.031 40.0375 163.476 37.5923 166.493 37.5923Z" fill="#FC544D"/>
<path d="M100.945 179.613H35.3973C32.3802 179.613 29.935 177.168 29.935 174.151V167.963C29.935 165.245 31.9322 162.94 34.6249 162.556L84.7761 155.391C96.1936 153.761 106.408 162.618 106.408 174.151C106.408 177.168 103.96 179.613 100.945 179.613ZM194.898 179.613H260.446C263.461 179.613 265.908 177.168 265.908 174.151V167.963C265.908 165.245 263.909 162.94 261.218 162.556L211.065 155.391C199.65 153.761 189.435 162.618 189.435 174.151C189.435 177.168 191.881 179.613 194.898 179.613Z" fill="#E43950"/>
<path d="M106.184 171.255H51.7844C48.7673 171.255 46.322 168.81 46.322 165.793V160.885L84.7761 155.391C95.2164 153.9 104.643 161.182 106.184 171.255ZM261.218 162.556L211.065 155.391C210.017 155.242 208.98 155.182 207.96 155.203C205.927 158.21 204.73 161.843 204.73 165.793C204.73 168.808 207.175 171.255 210.192 171.255H265.908V167.963C265.908 165.245 263.909 162.94 261.218 162.556Z" fill="#EA5569"/>
<path d="M217.816 89.4016L232.219 143.404C232.68 145.139 231.374 146.839 229.579 146.839H66.2063C64.4289 146.839 63.1252 145.171 63.5562 143.447L77.0264 89.5659C78.2426 84.7031 82.6125 81.2913 87.6246 81.2913H207.261C212.211 81.2913 216.542 84.6199 217.816 89.4016Z" fill="#FFBDAD"/>
<path d="M141.578 122.863C141.147 127.171 137.509 130.444 133.18 130.418C133.107 130.416 133.032 130.416 132.958 130.416C128.737 130.39 125.193 127.235 124.681 123.044L122.575 105.823C122.372 104.169 120.872 102.959 119.172 103.164C117.729 103.337 116.643 104.568 116.498 106.013L114.761 123.385C114.561 125.395 112.327 126.49 110.603 125.438C98.2378 117.895 91.1837 102.868 95.0265 87.4983C95.0265 84.0715 97.8047 81.2913 101.231 81.2913H207.288C212.239 81.2913 216.57 84.6199 217.846 89.4016L228.792 130.452H215.616C211.377 130.452 207.803 127.29 207.286 123.08L204.51 100.36C204.308 98.7067 202.808 97.4969 201.107 97.7018C199.665 97.8746 198.576 99.1057 198.433 100.548L196.199 122.897C195.77 127.186 192.16 130.452 187.85 130.452H187.637C183.397 130.452 179.823 127.29 179.309 123.08L177.199 105.823C176.996 104.169 175.496 102.959 173.795 103.164C172.353 103.337 171.267 104.568 171.122 106.01L169.434 122.897C169.005 127.186 165.395 130.452 161.085 130.452H160.993C156.753 130.452 153.179 127.29 152.665 123.08L149.904 100.486C149.727 99.0481 148.619 97.8426 147.179 97.6954C145.474 97.5204 143.989 98.7601 143.823 100.427L141.578 122.863Z" fill="#FFF5F5"/>
</svg>
